<?xml version="1.0" encoding="UTF-8"?>
<!DOCTYPE svg PUBLIC "-//W3C//DTD SVG 1.1//EN" "http://www.w3.org/Graphics/SVG/1.1/DTD/svg11.dtd">
<svg xmlns="http://www.w3.org/2000/svg" version="1.1" width="1284px" height="194px" style="shape-rendering:geometricPrecision; text-rendering:geometricPrecision; image-rendering:optimizeQuality; fill-rule:evenodd; clip-rule:evenodd" xmlns:xlink="http://www.w3.org/1999/xlink">
<g><path style="opacity:0.2" fill="#2e2e2e" d="M 848.5,7.5 C 847.766,6.12247 847.099,4.62247 846.5,3C 837.925,2.58412 829.591,2.41745 821.5,2.5C 822.289,2.21719 822.956,1.71719 823.5,1C 831.827,0.500266 840.16,0.3336 848.5,0.5C 848.5,2.83333 848.5,5.16667 848.5,7.5 Z"/></g>
<g><path style="opacity:1" fill="#fdfdfd" d="M 821.5,2.5 C 829.591,2.41745 837.925,2.58412 846.5,3C 847.099,4.62247 847.766,6.12247 848.5,7.5C 848.333,19.8378 848.5,32.1712 849,44.5C 850.699,45.4061 852.533,45.7394 854.5,45.5C 861.568,46.1822 868.734,46.8489 876,47.5C 877.831,57.1252 877.998,66.7919 876.5,76.5C 866.672,77.1608 857.005,77.4941 847.5,77.5C 847.263,78.791 847.596,79.791 848.5,80.5C 848.667,109.835 848.5,139.169 848,168.5C 846.429,170.923 844.263,172.256 841.5,172.5C 833.346,173.036 825.346,173.703 817.5,174.5C 815.682,162.206 814.849,149.54 815,136.5C 813.059,132.884 813.225,129.384 815.5,126C 815.766,89.171 815.433,52.171 814.5,15C 814.169,9.14524 816.503,4.97857 821.5,2.5 Z"/></g>
<g><path style="opacity:0.98" fill="#03828d" d="M 1283.5,90.5 C 1283.5,101.5 1283.5,112.5 1283.5,123.5C 1271.22,158.91 1246.22,175.744 1208.5,174C 1190.28,170.897 1175.45,162.064 1164,147.5C 1163.33,145.833 1163.33,144.167 1164,142.5C 1168.88,136.62 1174.05,131.12 1179.5,126C 1187.43,124.417 1193.76,126.917 1198.5,133.5C 1221.12,146.263 1237.95,140.929 1249,117.5C 1249.67,111.167 1249.67,104.833 1249,98.5C 1245.81,90.82 1240.97,84.4867 1234.5,79.5C 1222.59,73.8063 1210.93,74.3063 1199.5,81C 1186.43,93.4701 1174.76,107.137 1164.5,122C 1162.42,122.808 1160.42,122.641 1158.5,121.5C 1157.54,84.1643 1157.54,46.6643 1158.5,9C 1163.42,1.96771 1170.25,-0.865624 1179,0.5C 1182.83,0.666667 1186.67,0.833333 1190.5,1C 1191,1.5 1191.5,2 1192,2.5C 1192.5,16.8295 1192.67,31.1628 1192.5,45.5C 1222.66,35.7604 1248.49,42.4271 1270,65.5C 1275.74,73.288 1280.24,81.6214 1283.5,90.5 Z"/></g>
<g><path style="opacity:0.969" fill="#02818c" d="M 925.5,7.5 C 926.121,12.6021 926.787,17.6021 927.5,22.5C 927.334,31.8393 927.5,41.1726 928,50.5C 931.616,48.4265 935.449,46.9265 939.5,46C 960.26,41.5861 978.593,46.4195 994.5,60.5C 1000.12,66.6259 1004.29,73.6259 1007,81.5C 1010.52,110.183 1011.02,138.85 1008.5,167.5C 1006.95,170.548 1004.62,172.714 1001.5,174C 992.506,174.5 983.506,174.666 974.5,174.5C 974.285,172.226 973.618,170.059 972.5,168C 972.645,166.774 972.978,165.607 973.5,164.5C 972.677,141.209 972.177,117.876 972,94.5C 966.938,81.1249 957.271,75.7916 943,78.5C 940.099,80.0347 937.265,81.7014 934.5,83.5C 932.509,86.4941 930.509,89.4941 928.5,92.5C 927.852,116.817 927.185,141.15 926.5,165.5C 924.7,169.134 922.034,171.967 918.5,174C 909.255,174.817 900.089,174.65 891,173.5C 889.58,119.839 889.58,66.1727 891,12.5C 892.065,9.3239 894.231,7.3239 897.5,6.5C 902.167,6.16667 906.833,5.83333 911.5,5.5C 916.551,5.50673 921.217,6.1734 925.5,7.5 Z"/></g>
<g><path style="opacity:0.004" fill="#00fffe" d="M 925.5,7.5 C 927.442,12.0557 928.108,17.0557 927.5,22.5C 926.787,17.6021 926.121,12.6021 925.5,7.5 Z"/></g>
<g><path style="opacity:1" fill="#fafafa" d="M 78.5,41.5 C 74.4862,41.3345 70.4862,41.5012 66.5,42C 67.0253,42.6924 67.6919,43.1924 68.5,43.5C 75.6283,43.459 82.6283,43.459 89.5,43.5C 105.662,47.5808 118.328,56.5808 127.5,70.5C 124.893,74.6155 122.06,78.6155 119,82.5C 116.823,85.5231 113.989,87.5231 110.5,88.5C 109.235,87.7741 107.735,87.7741 106,88.5C 104.624,88.6842 103.791,89.3509 103.5,90.5C 101.811,89.0693 99.8113,88.2359 97.5,88C 86.2876,75.8207 72.9542,72.8207 57.5,79C 43.4478,87.6142 37.9478,100.114 41,116.5C 48.628,134.564 62.128,142.064 81.5,139C 87.5387,136.889 92.7054,133.389 97,128.5C 115.901,105.611 134.734,82.7775 153.5,60C 162.493,52.516 172.493,47.016 183.5,43.5C 186.627,44.8149 189.627,44.4815 192.5,42.5C 192.611,41.8826 192.944,41.3826 193.5,41C 199.38,39.9901 205.046,40.4901 210.5,42.5C 213.089,44.1573 215.756,44.4906 218.5,43.5C 240.351,49.8442 255.851,63.5109 265,84.5C 274.158,117.026 265.325,143.526 238.5,164C 231.923,167.914 224.923,170.747 217.5,172.5C 218.463,171.637 218.463,170.97 217.5,170.5C 215.974,170.994 214.641,171.661 213.5,172.5C 209.553,174.058 205.386,174.724 201,174.5C 197.833,174.333 194.667,174.167 191.5,174C 190.263,173.768 189.263,173.268 188.5,172.5C 189.239,172.631 189.906,172.464 190.5,172C 188.179,171.163 185.845,170.83 183.5,171C 184.056,171.383 184.389,171.883 184.5,172.5C 169.157,168.305 156.657,159.972 147,147.5C 146.333,145.833 146.333,144.167 147,142.5C 148.912,140.343 150.579,138.009 152,135.5C 154.976,132.47 158.143,129.803 161.5,127.5C 161.369,128.239 161.536,128.906 162,129.5C 166,126.833 170,126.833 174,129.5C 174.464,128.906 174.631,128.239 174.5,127.5C 195.058,145.75 213.725,144.083 230.5,122.5C 230.435,122.938 230.601,123.272 231,123.5C 232.298,122.054 232.465,120.721 231.5,119.5C 232.312,115.724 232.979,111.891 233.5,108C 233.204,98.3126 229.538,90.146 222.5,83.5C 218.137,80.14 213.47,77.4734 208.5,75.5C 205.144,73.6206 201.477,73.1206 197.5,74C 199.382,74.1981 201.048,74.6981 202.5,75.5C 194.266,75.579 186.933,78.2457 180.5,83.5C 159.535,107.474 138.868,131.808 118.5,156.5C 109.617,163.941 99.6175,169.274 88.5,172.5C 88.6309,171.624 88.2975,170.957 87.5,170.5C 86.2613,170.942 85.2613,171.609 84.5,172.5C 77.7025,174.546 70.7025,175.046 63.5,174C 62.5842,173.722 61.9175,173.222 61.5,172.5C 60.0028,171.694 58.3361,171.028 56.5,170.5C 55.537,170.97 55.537,171.637 56.5,172.5C 35.8401,167.014 20.6734,154.681 11,135.5C 8.73882,128.585 6.90548,121.585 5.5,114.5C 6.26791,115.263 6.76791,116.263 7,117.5C 7.66667,111.167 7.66667,104.833 7,98.5C 6.72158,99.4158 6.22158,100.082 5.5,100.5C 7.96482,81.5611 16.6315,66.2278 31.5,54.5C 37.0901,50.5509 43.0901,47.5509 49.5,45.5C 50.7211,46.4646 52.0544,46.298 53.5,45C 52.9056,44.5357 52.2389,44.369 51.5,44.5C 52.5676,43.5655 53.901,43.2322 55.5,43.5C 55.9169,44.1239 56.5836,44.4573 57.5,44.5C 60.327,44.1652 62.327,43.4985 63.5,42.5C 63.6107,41.8826 63.944,41.3826 64.5,41C 69.3522,40.1849 74.0189,40.3516 78.5,41.5 Z"/></g>
<g><path style="opacity:1" fill="#fefffe" d="M 618.5,42.5 C 613.369,41.2492 608.369,41.2492 603.5,42.5C 602.833,42.5 602.167,42.5 601.5,42.5C 601.611,41.8826 601.944,41.3826 602.5,41C 607.5,40.3333 612.5,40.3333 617.5,41C 618.056,41.3826 618.389,41.8826 618.5,42.5 Z"/></g>
<g><path style="opacity:1" fill="#fefffe" d="M 760.5,42.5 C 754.5,41.1667 748.5,41.1667 742.5,42.5C 742.611,41.8826 742.944,41.3826 743.5,41C 748.833,40.3333 754.167,40.3333 759.5,41C 760.056,41.3826 760.389,41.8826 760.5,42.5 Z"/></g>
<g><path style="opacity:0.058" fill="#262626" d="M 195.5,41.5 C 199.182,41.3347 202.848,41.5014 206.5,42C 202.911,42.2069 199.411,42.7069 196,43.5C 195.536,42.9056 195.369,42.2389 195.5,41.5 Z"/></g>
<g><path style="opacity:0.3" fill="#2f2f2f" d="M 603.5,42.5 C 608.369,41.2492 613.369,41.2492 618.5,42.5C 621.279,42.2786 623.946,42.612 626.5,43.5C 625.903,44.1386 625.07,44.472 624,44.5C 617.11,43.8908 610.277,43.2241 603.5,42.5 Z"/></g>
<g><path style="opacity:0.156" fill="#3a3a3a" d="M 192.5,42.5 C 189.627,44.4815 186.627,44.8149 183.5,43.5C 186.287,42.5233 189.287,42.19 192.5,42.5 Z"/></g>
<g><path style="opacity:0.12" fill="#313131" d="M 601.5,42.5 C 602.167,42.5 602.833,42.5 603.5,42.5C 600.86,43.421 598.027,44.0877 595,44.5C 593.93,44.472 593.097,44.1386 592.5,43.5C 595.391,42.5975 598.391,42.2641 601.5,42.5 Z"/></g>
<g><path style="opacity:1" fill="#f9f9f9" d="M 603.5,42.5 C 610.277,43.2241 617.11,43.8908 624,44.5C 625.07,44.472 625.903,44.1386 626.5,43.5C 651.295,50.7367 667.462,66.7367 675,91.5C 675.475,97.8354 675.975,104.169 676.5,110.5C 676.545,114.306 675.878,117.973 674.5,121.5C 673.088,122.806 671.421,123.64 669.5,124C 639.835,124.5 610.169,124.667 580.5,124.5C 580.595,127.358 581.762,129.691 584,131.5C 590.719,138.566 598.886,142.233 608.5,142.5C 607.15,143.65 607.316,144.317 609,144.5C 611.795,143.815 614.628,143.315 617.5,143C 616.906,142.536 616.239,142.369 615.5,142.5C 621.527,140.578 627.194,137.912 632.5,134.5C 637.464,133.936 642.13,135.269 646.5,138.5C 647.107,138.376 647.44,138.043 647.5,137.5C 651.38,140.704 655.213,144.037 659,147.5C 659.706,149.971 659.373,152.305 658,154.5C 648.5,162.998 637.667,168.998 625.5,172.5C 626.463,171.637 626.463,170.97 625.5,170.5C 623.293,170.891 621.96,171.558 621.5,172.5C 621.082,173.222 620.416,173.722 619.5,174C 612.833,174.667 606.167,174.667 599.5,174C 598.584,173.722 597.918,173.222 597.5,172.5C 596.359,171.661 595.026,170.994 593.5,170.5C 592.537,170.97 592.537,171.637 593.5,172.5C 567.653,165.732 551.32,149.399 544.5,123.5C 543.911,117.893 542.911,112.393 541.5,107C 541.519,105.167 542.185,103.667 543.5,102.5C 544.224,100.782 544.891,98.9483 545.5,97C 544.956,96.2828 544.289,95.7828 543.5,95.5C 549.187,70.2954 564.187,53.1287 588.5,44C 589.793,43.51 591.127,43.3433 592.5,43.5C 593.097,44.1386 593.93,44.472 595,44.5C 598.027,44.0877 600.86,43.421 603.5,42.5 Z M 587.5,92.5 C 584.5,92.5 581.5,92.5 578.5,92.5C 590.739,72.362 607.406,67.6954 628.5,78.5C 633.357,82.008 637.024,86.3413 639.5,91.5C 625.621,90.544 611.787,90.2107 598,90.5C 594.218,90.3791 590.718,91.0458 587.5,92.5 Z"/></g>
<g><path style="opacity:0.372" fill="#343434" d="M 760.5,42.5 C 765.775,42.355 770.775,43.355 775.5,45.5C 776.463,46.3635 776.463,47.0302 775.5,47.5C 762.935,42.8575 750.101,41.8575 737,44.5C 735.93,44.472 735.097,44.1386 734.5,43.5C 736.948,42.5269 739.615,42.1936 742.5,42.5C 748.5,41.1667 754.5,41.1667 760.5,42.5 Z"/></g>
<g><path style="opacity:1" fill="#fbfbfb" d="M 775.5,45.5 C 776.833,45.5 777.5,46.1667 777.5,47.5C 778.261,48.3909 779.261,49.0576 780.5,49.5C 781.463,49.0302 781.463,48.3635 780.5,47.5C 785.105,49.4711 789.438,51.9711 793.5,55C 798.771,59.433 803.105,64.5997 806.5,70.5C 802.179,79.1525 795.846,85.8192 787.5,90.5C 787.209,89.3509 786.376,88.6842 785,88.5C 783.624,88.6842 782.791,89.3509 782.5,90.5C 781.5,90.1667 780.833,89.5 780.5,88.5C 780.938,88.5654 781.272,88.3988 781.5,88C 779.696,86.1878 778.696,86.3544 778.5,88.5C 774.687,85.1972 770.687,82.0305 766.5,79C 763.428,78.4216 760.761,77.255 758.5,75.5C 754.185,72.9386 749.852,72.9386 745.5,75.5C 721.973,84.3766 714.64,100.71 723.5,124.5C 737.383,142.143 753.716,144.81 772.5,132.5C 772.369,133.239 772.536,133.906 773,134.5C 774.5,133 776,131.5 777.5,130C 777.272,129.601 776.938,129.435 776.5,129.5C 776.5,128.167 777.167,127.5 778.5,127.5C 781.624,127.689 784.957,127.856 788.5,128C 789.5,128.5 790.5,129 791.5,129.5C 792.463,129.03 792.463,128.363 791.5,127.5C 792.239,127.369 792.906,127.536 793.5,128C 799.359,133.276 803.526,139.443 806,146.5C 796.482,160.202 783.649,168.869 767.5,172.5C 768.463,171.637 768.463,170.97 767.5,170.5C 765.974,170.994 764.641,171.661 763.5,172.5C 763.158,173.338 762.492,173.672 761.5,173.5C 755.681,172.347 749.681,172.181 743.5,173C 745.708,173.191 747.708,173.691 749.5,174.5C 745.84,174.841 742.507,174.175 739.5,172.5C 738.469,171.751 737.302,171.085 736,170.5C 735.536,171.094 735.369,171.761 735.5,172.5C 704.062,162.474 687.062,140.974 684.5,108C 684.967,101.61 685.967,95.4438 687.5,89.5C 687.859,91.8312 688.526,91.6645 689.5,89C 688.906,88.5357 688.239,88.369 687.5,88.5C 695.285,65.1343 710.951,50.1343 734.5,43.5C 735.097,44.1386 735.93,44.472 737,44.5C 750.101,41.8575 762.935,42.8575 775.5,47.5C 776.463,47.0302 776.463,46.3635 775.5,45.5 Z"/></g>
<g><path style="opacity:0.971" fill="#02838e" d="M 1032.5,38.5 C 1040.75,38.1842 1048.92,38.5175 1057,39.5C 1058.04,67.1148 1059.04,94.7814 1060,122.5C 1069.84,140.495 1083.34,143.828 1100.5,132.5C 1104.13,128.724 1106.8,124.391 1108.5,119.5C 1109,92.7878 1109.83,66.1211 1111,39.5C 1118.75,38.3526 1126.59,38.1859 1134.5,39C 1138.36,40.6978 1141.03,43.5311 1142.5,47.5C 1143.67,72.4933 1143.83,97.4933 1143,122.5C 1138,148.333 1122.83,164.667 1097.5,171.5C 1068.34,176.265 1045.84,166.265 1030,141.5C 1027.11,134.051 1025.11,126.384 1024,118.5C 1023.33,95.5 1023.33,72.5 1024,49.5C 1024.33,48.1667 1024.67,46.8333 1025,45.5C 1027.7,43.3003 1030.2,40.967 1032.5,38.5 Z"/></g>
<g><path style="opacity:0.114" fill="#383838" d="M 63.5,42.5 C 62.327,43.4985 60.327,44.1652 57.5,44.5C 56.5836,44.4573 55.9169,44.1239 55.5,43.5C 57.9479,42.5269 60.6146,42.1936 63.5,42.5 Z"/></g>
<g><path style="opacity:0.157" fill="#333333" d="M 78.5,41.5 C 82.1667,42.1667 85.8333,42.8333 89.5,43.5C 82.6283,43.459 75.6283,43.459 68.5,43.5C 67.6919,43.1924 67.0253,42.6924 66.5,42C 70.4862,41.5012 74.4862,41.3345 78.5,41.5 Z"/></g>
<g><path style="opacity:0.093" fill="#383838" d="M 210.5,42.5 C 213.279,42.2786 215.946,42.612 218.5,43.5C 215.756,44.4906 213.089,44.1573 210.5,42.5 Z"/></g>
<g><path style="opacity:1" fill="#fbfbfb" d="M 287.5,43.5 C 294.655,44.3288 301.989,44.8288 309.5,45C 310.822,47.1676 311.489,47.0009 311.5,44.5C 312.404,45.209 312.737,46.209 312.5,47.5C 314.685,47.2964 316.685,46.6298 318.5,45.5C 317.15,46.6499 317.316,47.3166 319,47.5C 329.918,43.6757 341.084,42.6757 352.5,44.5C 354.137,45.3796 355.97,46.0463 358,46.5C 358.765,46.4301 359.265,46.0967 359.5,45.5C 380.387,52.5604 393.554,66.8937 399,88.5C 399.667,114.5 399.667,140.5 399,166.5C 397.92,169.749 395.753,171.749 392.5,172.5C 388.245,172.087 383.745,172.087 379,172.5C 374.74,172.461 370.74,171.794 367,170.5C 366.536,171.094 366.369,171.761 366.5,172.5C 365.727,167.99 365.06,163.324 364.5,158.5C 365.112,153.696 365.446,148.863 365.5,144C 364.892,127.503 364.392,111.003 364,94.5C 356.768,77.6529 344.601,72.4863 327.5,79C 324.948,81.8529 322.115,84.3529 319,86.5C 317.216,90.4005 315.716,94.4005 314.5,98.5C 314.167,106.5 313.833,114.5 313.5,122.5C 313.367,135.597 314.033,148.43 315.5,161C 314.206,164.679 312.539,168.179 310.5,171.5C 308.447,172.527 306.447,173.527 304.5,174.5C 304.611,173.883 304.944,173.383 305.5,173C 297.655,172.178 289.989,172.344 282.5,173.5C 281.167,153.178 280.5,132.511 280.5,111.5C 280.667,90.8333 280.833,70.1667 281,49.5C 281.754,45.9106 283.921,43.9106 287.5,43.5 Z"/></g>
<g><path style="opacity:0.234" fill="#333333" d="M 311.5,44.5 C 311.489,47.0009 310.822,47.1676 309.5,45C 301.989,44.8288 294.655,44.3288 287.5,43.5C 291.319,42.8344 295.319,42.5011 299.5,42.5C 303.893,42.5093 307.893,43.176 311.5,44.5 Z"/></g>
<g><path style="opacity:0.161" fill="#3a3a3a" d="M 352.5,43.5 C 352.5,43.8333 352.5,44.1667 352.5,44.5C 341.084,42.6757 329.918,43.6757 319,47.5C 317.316,47.3166 317.15,46.6499 318.5,45.5C 329.641,42.4351 340.975,41.7684 352.5,43.5 Z"/></g>
<g><path style="opacity:1" fill="#fdfdfd" d="M 443.5,42.5 C 445.741,43.2998 446.741,44.9664 446.5,47.5C 451.5,46.1667 456.5,44.8333 461.5,43.5C 469.829,43.5658 478.162,43.5658 486.5,43.5C 511.493,49.1598 526.826,64.4931 532.5,89.5C 533.238,106.835 533.904,124.168 534.5,141.5C 533.991,150.178 533.325,158.845 532.5,167.5C 531.449,169.844 529.782,171.511 527.5,172.5C 527.265,171.903 526.765,171.57 526,171.5C 517.691,172.124 509.525,172.791 501.5,173.5C 500.883,173.389 500.383,173.056 500,172.5C 499.667,147.167 499.333,121.833 499,96.5C 493.156,79.6624 481.656,73.4957 464.5,78C 455.981,82.3514 450.648,89.1847 448.5,98.5C 448.167,106.667 447.833,114.833 447.5,123C 447.32,135.34 447.986,147.34 449.5,159C 448.311,162.441 447.311,165.941 446.5,169.5C 444.113,171.689 441.447,173.356 438.5,174.5C 438.611,173.883 438.944,173.383 439.5,173C 431.833,172.333 424.167,172.333 416.5,173C 417.056,173.383 417.389,173.883 417.5,174.5C 416.504,174.586 415.671,174.252 415,173.5C 414.333,132.167 414.333,90.8333 415,49.5C 416.08,46.2508 418.247,44.2508 421.5,43.5C 428.989,44.6557 436.655,44.8223 444.5,44C 443.944,43.6174 443.611,43.1174 443.5,42.5 Z"/></g>
<g><path style="opacity:0.229" fill="#2b2b2b" d="M 443.5,42.5 C 443.611,43.1174 443.944,43.6174 444.5,44C 436.655,44.8223 428.989,44.6557 421.5,43.5C 428.648,42.5084 435.981,42.175 443.5,42.5 Z"/></g>
<g><path style="opacity:0.125" fill="#3d3d3d" d="M 486.5,43.5 C 478.162,43.5658 469.829,43.5658 461.5,43.5C 469.962,42.2134 478.295,42.2134 486.5,43.5 Z"/></g>
<g><path style="opacity:0.092" fill="#252525" d="M 51.5,44.5 C 52.2389,44.369 52.9056,44.5357 53.5,45C 52.0544,46.298 50.7211,46.4646 49.5,45.5C 50.1667,45.1667 50.8333,44.8333 51.5,44.5 Z"/></g>
<g><path style="opacity:0.094" fill="#646464" d="M 352.5,43.5 C 355.079,43.3939 357.412,44.0605 359.5,45.5C 359.265,46.0967 358.765,46.4301 358,46.5C 355.97,46.0463 354.137,45.3796 352.5,44.5C 352.5,44.1667 352.5,43.8333 352.5,43.5 Z"/></g>
<g><path style="opacity:0.084" fill="#141414" d="M 777.5,47.5 C 778.5,47.5 779.5,47.5 780.5,47.5C 781.463,48.3635 781.463,49.0302 780.5,49.5C 779.261,49.0576 778.261,48.3909 777.5,47.5 Z"/></g>
<g><path style="opacity:0.064" fill="#121212" d="M 208.5,75.5 C 206.5,75.5 204.5,75.5 202.5,75.5C 201.048,74.6981 199.382,74.1981 197.5,74C 201.477,73.1206 205.144,73.6206 208.5,75.5 Z"/></g>
<g><path style="opacity:0.063" fill="#131313" d="M 758.5,75.5 C 754.167,75.5 749.833,75.5 745.5,75.5C 749.852,72.9386 754.185,72.9386 758.5,75.5 Z"/></g>
<g><path style="opacity:0.075" fill="#3c494c" d="M 848.5,80.5 C 847.596,79.791 847.263,78.791 847.5,77.5C 857.005,77.4941 866.672,77.1608 876.5,76.5C 877.998,66.7919 877.831,57.1252 876,47.5C 868.734,46.8489 861.568,46.1822 854.5,45.5C 855.263,44.7321 856.263,44.2321 857.5,44C 863.833,43.3333 870.167,43.3333 876.5,44C 877,44.5 877.5,45 878,45.5C 879.505,55.7884 879.838,66.1218 879,76.5C 868.703,77.8117 858.537,79.145 848.5,80.5 Z"/></g>
<g><path style="opacity:0.118" fill="#1a1a1a" d="M 780.5,88.5 C 779.833,88.5 779.167,88.5 778.5,88.5C 778.696,86.3544 779.696,86.1878 781.5,88C 781.272,88.3988 780.938,88.5654 780.5,88.5 Z"/></g>
<g><path style="opacity:0.055" fill="#404040" d="M 110.5,88.5 C 108.521,90.1675 106.188,90.8342 103.5,90.5C 103.791,89.3509 104.624,88.6842 106,88.5C 107.735,87.7741 109.235,87.7741 110.5,88.5 Z"/></g>
<g><path style="opacity:0.051" fill="#131313" d="M 687.5,88.5 C 688.239,88.369 688.906,88.5357 689.5,89C 688.526,91.6645 687.859,91.8312 687.5,89.5C 687.5,89.1667 687.5,88.8333 687.5,88.5 Z"/></g>
<g><path style="opacity:0.027" fill="#272727" d="M 787.5,90.5 C 785.833,90.5 784.167,90.5 782.5,90.5C 782.791,89.3509 783.624,88.6842 785,88.5C 786.376,88.6842 787.209,89.3509 787.5,90.5 Z"/></g>
<g><path style="opacity:0.28" fill="#404040" d="M 578.5,92.5 C 581.5,92.5 584.5,92.5 587.5,92.5C 602.787,91.7603 618.121,91.7603 633.5,92.5C 636.287,92.4262 638.787,91.7595 641,90.5C 642.188,91.5634 642.688,92.8967 642.5,94.5C 627.291,94.4602 612.124,94.4602 597,94.5C 590.059,94.3528 583.892,93.6861 578.5,92.5 Z"/></g>
<g><path style="opacity:0.067" fill="#101010" d="M 543.5,95.5 C 544.289,95.7828 544.956,96.2828 545.5,97C 544.891,98.9483 544.224,100.782 543.5,102.5C 543.5,100.167 543.5,97.8333 543.5,95.5 Z"/></g>
<g><path style="opacity:0.046" fill="#151515" d="M 5.5,114.5 C 5.5,109.833 5.5,105.167 5.5,100.5C 6.22158,100.082 6.72158,99.4158 7,98.5C 7.66667,104.833 7.66667,111.167 7,117.5C 6.76791,116.263 6.26791,115.263 5.5,114.5 Z"/></g>
<g><path style="opacity:0.102" fill="#444444" d="M 231.5,119.5 C 232.465,120.721 232.298,122.054 231,123.5C 230.601,123.272 230.435,122.938 230.5,122.5C 230.263,121.209 230.596,120.209 231.5,119.5 Z"/></g>
<g><path style="opacity:0.067" fill="#131313" d="M 576.5,122.5 C 579.907,122.125 580.407,123.125 578,125.5C 576.961,124.756 576.461,123.756 576.5,122.5 Z"/></g>
<g><path style="opacity:1" fill="#fefffe" d="M 173.5,127.5 C 169.833,126.167 166.167,126.167 162.5,127.5C 162.611,126.883 162.944,126.383 163.5,126C 166.5,125.333 169.5,125.333 172.5,126C 173.056,126.383 173.389,126.883 173.5,127.5 Z"/></g>
<g><path style="opacity:0.123" fill="#3e3e3e" d="M 791.5,127.5 C 792.463,128.363 792.463,129.03 791.5,129.5C 790.5,129 789.5,128.5 788.5,128C 784.957,127.856 781.624,127.689 778.5,127.5C 778.611,126.883 778.944,126.383 779.5,126C 783.167,125.333 786.833,125.333 790.5,126C 791.056,126.383 791.389,126.883 791.5,127.5 Z"/></g>
<g><path style="opacity:0.094" fill="#1d1d1d" d="M 173.5,127.5 C 173.833,127.5 174.167,127.5 174.5,127.5C 174.631,128.239 174.464,128.906 174,129.5C 170,126.833 166,126.833 162,129.5C 161.536,128.906 161.369,128.239 161.5,127.5C 161.833,127.5 162.167,127.5 162.5,127.5C 166.167,126.167 169.833,126.167 173.5,127.5 Z"/></g>
<g><path style="opacity:0.102" fill="#323232" d="M 776.5,129.5 C 776.938,129.435 777.272,129.601 777.5,130C 776,131.5 774.5,133 773,134.5C 772.536,133.906 772.369,133.239 772.5,132.5C 773.048,130.468 774.381,129.468 776.5,129.5 Z"/></g>
<g><path style="opacity:1" fill="#fefffe" d="M 638.5,132.5 C 640.179,132.285 641.179,132.952 641.5,134.5C 640.29,134.068 639.29,133.401 638.5,132.5 Z"/></g>
<g><path style="opacity:0.141" fill="#3e3e3e" d="M 638.5,132.5 C 639.29,133.401 640.29,134.068 641.5,134.5C 643.97,134.654 645.97,135.654 647.5,137.5C 647.44,138.043 647.107,138.376 646.5,138.5C 642.13,135.269 637.464,133.936 632.5,134.5C 634.142,132.919 636.142,132.253 638.5,132.5 Z"/></g>
<g><path style="opacity:0.037" fill="#161616" d="M 608.5,142.5 C 610.833,142.5 613.167,142.5 615.5,142.5C 616.239,142.369 616.906,142.536 617.5,143C 614.628,143.315 611.795,143.815 609,144.5C 607.316,144.317 607.15,143.65 608.5,142.5 Z"/></g>
<g><path style="opacity:0.076" fill="#141414" d="M 61.5,172.5 C 59.8333,172.5 58.1667,172.5 56.5,172.5C 55.537,171.637 55.537,170.97 56.5,170.5C 58.3361,171.028 60.0028,171.694 61.5,172.5 Z"/></g>
<g><path style="opacity:0.075" fill="#131313" d="M 88.5,172.5 C 87.1667,172.5 85.8333,172.5 84.5,172.5C 85.2613,171.609 86.2613,170.942 87.5,170.5C 88.2975,170.957 88.6309,171.624 88.5,172.5 Z"/></g>
<g><path style="opacity:0.063" fill="#191919" d="M 188.5,172.5 C 187.167,172.5 185.833,172.5 184.5,172.5C 184.389,171.883 184.056,171.383 183.5,171C 185.845,170.83 188.179,171.163 190.5,172C 189.906,172.464 189.239,172.631 188.5,172.5 Z"/></g>
<g><path style="opacity:0.082" fill="#121212" d="M 217.5,172.5 C 216.167,172.5 214.833,172.5 213.5,172.5C 214.641,171.661 215.974,170.994 217.5,170.5C 218.463,170.97 218.463,171.637 217.5,172.5 Z"/></g>
<g><path style="opacity:0.053" fill="#181818" d="M 597.5,172.5 C 596.167,172.5 594.833,172.5 593.5,172.5C 592.537,171.637 592.537,170.97 593.5,170.5C 595.026,170.994 596.359,171.661 597.5,172.5 Z"/></g>
<g><path style="opacity:0.096" fill="#131313" d="M 625.5,172.5 C 624.167,172.5 622.833,172.5 621.5,172.5C 621.96,171.558 623.293,170.891 625.5,170.5C 626.463,170.97 626.463,171.637 625.5,172.5 Z"/></g>
<g><path style="opacity:0.078" fill="#141414" d="M 739.5,172.5 C 738.167,172.5 736.833,172.5 735.5,172.5C 735.369,171.761 735.536,171.094 736,170.5C 737.302,171.085 738.469,171.751 739.5,172.5 Z"/></g>
<g><path style="opacity:0.094" fill="#141414" d="M 767.5,172.5 C 766.167,172.5 764.833,172.5 763.5,172.5C 764.641,171.661 765.974,170.994 767.5,170.5C 768.463,170.97 768.463,171.637 767.5,172.5 Z"/></g>
<g><path style="opacity:0.064" fill="#232323" d="M 304.5,174.5 C 296.981,174.825 289.648,174.492 282.5,173.5C 289.989,172.344 297.655,172.178 305.5,173C 304.944,173.383 304.611,173.883 304.5,174.5 Z"/></g>
<g><path style="opacity:0.048" fill="#2d2d2d" d="M 392.5,172.5 C 392.389,173.117 392.056,173.617 391.5,174C 383.5,174.667 375.5,174.667 367.5,174C 366.944,173.617 366.611,173.117 366.5,172.5C 366.369,171.761 366.536,171.094 367,170.5C 370.74,171.794 374.74,172.461 379,172.5C 383.745,172.087 388.245,172.087 392.5,172.5 Z"/></g>
<g><path style="opacity:0.077" fill="#202020" d="M 438.5,174.5 C 431.5,174.5 424.5,174.5 417.5,174.5C 417.389,173.883 417.056,173.383 416.5,173C 424.167,172.333 431.833,172.333 439.5,173C 438.944,173.383 438.611,173.883 438.5,174.5 Z"/></g>
<g><path style="opacity:0.188" fill="#2f2f2f" d="M 527.5,172.5 C 526.711,172.783 526.044,173.283 525.5,174C 517.323,174.823 509.323,174.656 501.5,173.5C 509.525,172.791 517.691,172.124 526,171.5C 526.765,171.57 527.265,171.903 527.5,172.5 Z"/></g>
<g><path style="opacity:0.088" fill="#454545" d="M 761.5,173.5 C 757.702,174.483 753.702,174.817 749.5,174.5C 747.708,173.691 745.708,173.191 743.5,173C 749.681,172.181 755.681,172.347 761.5,173.5 Z"/></g>
<g><path style="opacity:0.073" fill="#1d1d1d" d="M 841.5,172.5 C 833.903,174.467 825.903,175.134 817.5,174.5C 825.346,173.703 833.346,173.036 841.5,172.5 Z"/></g>
</svg>
