<svg version="1.1" id="Layer_1" xmlns="http://www.w3.org/2000/svg" xmlns:xlink="http://www.w3.org/1999/xlink" x="0px" y="0px"
	 width="100%" viewBox="0 0 766 116" enable-background="new 0 0 766 116" xml:space="preserve">
<path fill="#FCFDFD" opacity="1.000000" stroke="none" 
	d="
M569.000000,117.000000 
	C379.333344,117.000000 190.166672,117.000000 1.000000,117.000000 
	C1.000000,78.333336 1.000000,39.666668 1.000000,1.000000 
	C256.333344,1.000000 511.666656,1.000000 767.000000,1.000000 
	C767.000000,39.666668 767.000000,78.333336 767.000000,117.000000 
	C701.166687,117.000000 635.333313,117.000000 569.000000,117.000000 
M159.579041,64.695091 
	C157.972656,46.990456 148.184402,34.056499 132.724197,29.209761 
	C117.265671,24.363543 101.784355,29.415554 90.407181,43.088223 
	C80.391510,55.124683 70.525703,67.287315 60.406662,79.235817 
	C52.705311,88.329514 39.944668,89.270668 30.938900,81.719475 
	C22.205925,74.397018 20.974236,61.501297 28.157026,52.593430 
	C35.349449,43.673603 47.869209,42.233391 57.232891,49.248680 
	C65.255257,55.259048 65.864708,55.183998 72.369179,47.244232 
	C73.395760,45.991119 74.344017,44.673847 75.270073,43.462631 
	C62.613583,25.519487 37.334354,22.251442 20.394230,36.138912 
	C3.295954,50.156029 1.505511,75.724197 16.506496,91.657097 
	C32.382790,108.519684 58.878086,107.853607 73.904877,90.067719 
	C84.548325,77.470016 94.847313,64.580139 105.553719,52.037197 
	C112.415901,43.997921 123.566071,42.451328 132.264694,47.783066 
	C141.117096,53.209068 144.681412,63.900913 140.883118,73.473427 
	C136.614166,84.232071 121.632828,92.616463 107.712372,81.439079 
	C101.890251,76.764236 99.088867,77.191956 94.297737,82.893890 
	C92.935951,84.514542 91.719833,86.257591 90.376747,88.023643 
	C97.943237,97.912582 107.515831,103.262856 119.548279,103.814949 
	C141.690811,104.830948 159.538681,87.307037 159.579041,64.695091 
M341.610138,95.934448 
	C358.743927,108.003143 383.561951,105.492477 393.070740,90.607475 
	C392.357269,89.964470 391.553711,89.367310 390.903595,88.634102 
	C385.922974,83.016685 381.228394,81.430466 373.727295,85.863495 
	C362.861816,92.284828 348.542999,85.783455 344.463501,73.718987 
	C346.214752,73.718987 347.855682,73.718994 349.496582,73.718987 
	C365.489166,73.718925 381.481812,73.705017 397.474335,73.731781 
	C400.304413,73.736519 402.709717,73.678604 403.138733,69.848770 
	C406.004639,44.263847 381.798370,22.568434 356.694275,28.516312 
	C341.596436,32.093414 331.675018,41.597115 327.936554,56.607716 
	C324.079712,72.093788 328.941559,85.139076 341.610138,95.934448 
M556.623169,51.163479 
	C561.733826,45.997482 567.793884,44.534828 574.449585,47.354996 
	C581.268799,50.244446 583.655579,56.163486 583.705444,63.145828 
	C583.789856,74.974724 583.728760,86.804657 583.728882,98.634148 
	C583.728882,100.370911 583.728943,102.107674 583.728943,104.042793 
	C588.056091,104.042793 591.545166,104.133820 595.027649,104.020866 
	C599.915405,103.862328 602.062195,101.781555 602.072205,96.963287 
	C602.097473,84.801796 602.183228,72.635315 601.888611,60.479462 
	C601.446899,42.257252 588.372498,29.455944 570.097900,29.828943 
	C564.156372,29.950214 558.253662,31.975161 552.013550,33.191715 
	C552.013550,24.583675 552.013550,15.492590 552.013550,5.955105 
	C548.823181,5.955105 546.030640,5.951942 543.238159,5.955710 
	C535.486816,5.966169 533.909851,7.533758 533.907959,15.317231 
	C533.901062,43.141537 533.901733,70.965843 533.915527,98.790138 
	C533.916321,100.398842 534.059326,102.007469 534.134583,103.582695 
	C534.979736,103.791229 535.446228,104.000801 535.915222,104.006683 
	C538.913757,104.044228 541.914734,104.107475 544.911377,104.029121 
	C550.348755,103.886948 552.244812,101.849030 552.244263,96.271065 
	C552.243225,85.441772 551.878845,74.595634 552.399170,63.791821 
	C552.595703,59.711815 554.824219,55.729668 556.623169,51.163479 
M704.628418,95.920883 
	C719.753906,106.831436 738.446960,106.446426 752.183655,94.941368 
	C765.627930,83.681267 769.742676,64.888710 762.191895,49.232128 
	C753.363220,30.925709 738.111633,25.387413 710.884766,30.805317 
	C710.884766,26.266613 710.884705,21.793474 710.884705,17.320333 
	C710.884705,12.879655 710.884766,8.438976 710.884766,3.478107 
	C708.034912,3.478107 705.740906,3.466663 703.447083,3.480169 
	C695.277954,3.528265 693.927795,4.896245 693.925476,13.148153 
	C693.921021,28.965319 693.924438,44.782482 693.924561,60.599648 
	C693.924561,64.336555 693.924561,68.073456 693.924561,73.078400 
	C695.823608,70.872864 696.844299,69.680954 697.871948,68.495041 
	C702.992981,62.585026 707.817810,56.381420 713.308289,50.837147 
	C721.443909,42.621880 733.891357,42.594810 742.106934,50.234123 
	C750.193726,57.753719 751.190552,70.092094 744.410400,78.746758 
	C737.463318,87.614548 725.535400,89.239311 715.860474,82.635727 
	C706.561584,76.288811 706.559570,76.287170 699.516663,84.891823 
	C698.697693,85.892380 697.916748,86.924088 696.138977,89.188988 
	C698.865295,91.349792 701.467896,93.412582 704.628418,95.920883 
M233.626373,103.668060 
	C237.176636,102.433372 238.205536,99.772392 238.175598,96.235771 
	C238.085403,85.579140 238.155380,74.921249 238.138290,64.263893 
	C238.094223,36.784733 214.370499,21.057823 188.893875,31.601454 
	C188.147278,31.910435 187.351028,32.099445 186.388535,32.404404 
	C186.144836,30.973885 185.938660,29.763678 185.687119,28.287214 
	C183.130875,28.287214 180.818832,28.275164 178.506973,28.289469 
	C171.517715,28.332718 169.984360,29.844124 169.981644,36.760590 
	C169.973404,57.742317 169.974960,78.724052 169.988556,99.705772 
	C169.989380,100.979416 170.128006,102.252968 170.221512,103.851402 
	C173.353210,103.851402 176.152847,103.864838 178.952316,103.848709 
	C185.489716,103.811035 187.221863,102.118111 187.204285,95.561264 
	C187.174393,84.406448 186.816574,73.245934 187.071884,62.098698 
	C187.351685,49.882778 199.385132,41.847240 210.220306,46.448719 
	C217.851410,49.689480 221.005157,55.884743 220.979279,63.979103 
	C220.937363,77.087852 220.968002,90.196838 220.968002,103.810051 
	C225.200424,103.810051 228.984909,103.810051 233.626373,103.668060 
M300.909515,73.508286 
	C300.909515,83.453896 300.909515,93.399506 300.909515,103.845932 
	C304.804138,103.845932 308.260742,103.924194 311.712311,103.825928 
	C315.937073,103.705658 318.162476,101.399803 318.167511,97.200188 
	C318.182526,84.711632 318.505432,72.206429 317.978455,59.738575 
	C317.328156,44.353214 305.810974,31.847948 290.765350,28.746067 
	C282.179504,26.975967 274.321991,29.130899 266.829010,31.611532 
	C265.359741,30.029913 263.750183,28.942404 261.974854,28.362131 
	C260.771332,27.968763 259.334717,28.273205 258.002686,28.290882 
	C251.682159,28.374765 249.996002,30.022703 249.990891,36.284943 
	C249.973343,57.767563 249.980621,79.250198 249.995102,100.732826 
	C249.995728,101.669601 250.160889,102.606262 250.278458,103.850441 
	C253.403778,103.850441 256.207245,103.865074 259.010468,103.847488 
	C265.520142,103.806656 267.214325,102.118896 267.204102,95.520058 
	C267.186798,84.363419 266.967072,73.204941 267.111938,62.050865 
	C267.233398,52.700867 274.972992,45.120590 283.989319,45.083492 
	C293.044250,45.046238 300.577606,52.552322 300.888580,62.022240 
	C301.003265,65.515671 300.908661,69.015984 300.909515,73.508286 
M674.927246,26.116800 
	C671.666382,26.116800 668.405457,26.116800 664.869995,26.116800 
	C664.869995,40.616249 664.955078,54.422161 664.841919,68.226448 
	C664.757935,78.470787 657.427673,86.089920 647.901672,86.146111 
	C638.412842,86.202080 631.045837,78.508682 630.948059,68.328857 
	C630.877686,61.003242 630.932434,53.676426 630.931946,46.350143 
	C630.931580,39.748466 630.931885,33.146790 630.931885,26.477032 
	C629.680237,26.300503 629.045410,26.141239 628.408813,26.133501 
	C625.911621,26.103151 623.408630,26.017977 620.917297,26.142290 
	C616.179810,26.378685 613.953186,28.577114 613.929871,33.373177 
	C613.869263,45.860012 613.642761,58.358105 614.061157,70.832291 
	C614.648010,88.328865 628.811768,102.346664 646.077026,103.123589 
	C663.676147,103.915543 679.379456,91.728996 681.041809,74.295403 
	C682.363770,60.431190 681.698120,46.370464 681.745422,32.396412 
	C681.757935,28.705242 679.350830,26.734259 674.927246,26.116800 
M448.685547,86.858597 
	C447.213196,86.589478 445.715332,86.416687 444.272705,86.035202 
	C436.400848,83.953629 429.903351,76.585907 428.916412,68.697212 
	C427.834045,60.045567 431.826813,51.902073 439.284058,47.551792 
	C446.459045,43.366158 455.722168,43.945126 462.313354,48.991127 
	C470.690430,55.404377 470.918976,55.382114 477.691162,47.118347 
	C478.701935,45.884876 479.628387,44.582256 480.524139,43.403351 
	C470.232849,29.371998 452.625702,23.998110 436.738983,29.801346 
	C421.304993,35.439224 410.430115,51.408848 411.459595,66.923737 
	C412.643372,84.764267 424.411560,99.073212 441.013550,102.858376 
	C456.415283,106.369888 473.451874,99.822800 480.409363,87.538879 
	C478.770935,85.579979 477.100189,83.523651 475.366547,81.521812 
	C471.574219,77.142838 468.615997,76.828972 464.400726,80.715797 
	C460.149170,84.636040 455.194122,86.560669 448.685547,86.858597 
M494.292816,3.286377 
	C489.819855,4.348238 488.983368,7.543960 488.993744,11.620836 
	C489.069092,41.237206 489.030762,70.853851 489.047089,100.470406 
	C489.047699,101.579933 489.240875,102.689354 489.373566,104.112274 
	C492.436371,104.112274 495.237701,104.141930 498.038269,104.106285 
	C504.456940,104.024605 506.228638,102.219147 506.234711,95.709610 
	C506.248535,80.901344 506.230988,66.093048 506.249390,51.284790 
	C506.251129,49.872871 506.415985,48.461163 506.529938,46.655640 
	C512.591187,46.655640 518.179260,46.655640 523.834351,46.655640 
	C523.834351,40.801807 523.834351,35.379143 523.834351,29.520931 
	C518.024475,29.520931 512.421509,29.520931 506.185272,29.520931 
	C506.185272,20.571304 506.185272,12.035516 506.185272,3.199718 
	C502.079651,3.199718 498.613586,3.199718 494.292816,3.286377 
z"/>
<path fill="#050505" opacity="1.000000" stroke="none" 
	d="
M159.618286,65.124237 
	C159.538681,87.307037 141.690811,104.830948 119.548279,103.814949 
	C107.515831,103.262856 97.943237,97.912582 90.376747,88.023643 
	C91.719833,86.257591 92.935951,84.514542 94.297737,82.893890 
	C99.088867,77.191956 101.890251,76.764236 107.712372,81.439079 
	C121.632828,92.616463 136.614166,84.232071 140.883118,73.473427 
	C144.681412,63.900913 141.117096,53.209068 132.264694,47.783066 
	C123.566071,42.451328 112.415901,43.997921 105.553719,52.037197 
	C94.847313,64.580139 84.548325,77.470016 73.904877,90.067719 
	C58.878086,107.853607 32.382790,108.519684 16.506496,91.657097 
	C1.505511,75.724197 3.295954,50.156029 20.394230,36.138912 
	C37.334354,22.251442 62.613583,25.519487 75.270073,43.462631 
	C74.344017,44.673847 73.395760,45.991119 72.369179,47.244232 
	C65.864708,55.183998 65.255257,55.259048 57.232891,49.248680 
	C47.869209,42.233391 35.349449,43.673603 28.157026,52.593430 
	C20.974236,61.501297 22.205925,74.397018 30.938900,81.719475 
	C39.944668,89.270668 52.705311,88.329514 60.406662,79.235817 
	C70.525703,67.287315 80.391510,55.124683 90.407181,43.088223 
	C101.784355,29.415554 117.265671,24.363543 132.724197,29.209761 
	C148.184402,34.056499 157.972656,46.990456 159.618286,65.124237 
z"/>
<path fill="#060606" opacity="1.000000" stroke="none" 
	d="
M341.327515,95.715652 
	C328.941559,85.139076 324.079712,72.093788 327.936554,56.607716 
	C331.675018,41.597115 341.596436,32.093414 356.694275,28.516312 
	C381.798370,22.568434 406.004639,44.263847 403.138733,69.848770 
	C402.709717,73.678604 400.304413,73.736519 397.474335,73.731781 
	C381.481812,73.705017 365.489166,73.718925 349.496582,73.718987 
	C347.855682,73.718994 346.214752,73.718987 344.463501,73.718987 
	C348.542999,85.783455 362.861816,92.284828 373.727295,85.863495 
	C381.228394,81.430466 385.922974,83.016685 390.903595,88.634102 
	C391.553711,89.367310 392.357269,89.964470 393.070740,90.607475 
	C383.561951,105.492477 358.743927,108.003143 341.327515,95.715652 
M371.822510,44.376442 
	C358.738495,41.517891 347.274231,47.116081 344.703430,57.525711 
	C358.175446,57.525711 371.670105,57.525711 385.599335,57.525711 
	C382.896698,51.009922 378.571381,46.992653 371.822510,44.376442 
z"/>
<path fill="#02828D" opacity="1.000000" stroke="none" 
	d="
M556.374817,51.433197 
	C554.824219,55.729668 552.595703,59.711815 552.399170,63.791821 
	C551.878845,74.595634 552.243225,85.441772 552.244263,96.271065 
	C552.244812,101.849030 550.348755,103.886948 544.911377,104.029121 
	C541.914734,104.107475 538.913757,104.044228 535.915222,104.006683 
	C535.446228,104.000801 534.979736,103.791229 534.134583,103.582695 
	C534.059326,102.007469 533.916321,100.398842 533.915527,98.790138 
	C533.901733,70.965843 533.901062,43.141537 533.907959,15.317231 
	C533.909851,7.533758 535.486816,5.966169 543.238159,5.955710 
	C546.030640,5.951942 548.823181,5.955105 552.013550,5.955105 
	C552.013550,15.492590 552.013550,24.583675 552.013550,33.191715 
	C558.253662,31.975161 564.156372,29.950214 570.097900,29.828943 
	C588.372498,29.455944 601.446899,42.257252 601.888611,60.479462 
	C602.183228,72.635315 602.097473,84.801796 602.072205,96.963287 
	C602.062195,101.781555 599.915405,103.862328 595.027649,104.020866 
	C591.545166,104.133820 588.056091,104.042793 583.728943,104.042793 
	C583.728943,102.107674 583.728882,100.370911 583.728882,98.634148 
	C583.728760,86.804657 583.789856,74.974724 583.705444,63.145828 
	C583.655579,56.163486 581.268799,50.244446 574.449585,47.354996 
	C567.793884,44.534828 561.733826,45.997482 556.374817,51.433197 
z"/>
<path fill="#05838E" opacity="1.000000" stroke="none" 
	d="
M704.349487,95.698135 
	C701.467896,93.412582 698.865295,91.349792 696.138977,89.188988 
	C697.916748,86.924088 698.697693,85.892380 699.516663,84.891823 
	C706.559570,76.287170 706.561584,76.288811 715.860474,82.635727 
	C725.535400,89.239311 737.463318,87.614548 744.410400,78.746758 
	C751.190552,70.092094 750.193726,57.753719 742.106934,50.234123 
	C733.891357,42.594810 721.443909,42.621880 713.308289,50.837147 
	C707.817810,56.381420 702.992981,62.585026 697.871948,68.495041 
	C696.844299,69.680954 695.823608,70.872864 693.924561,73.078400 
	C693.924561,68.073456 693.924561,64.336555 693.924561,60.599648 
	C693.924438,44.782482 693.921021,28.965319 693.925476,13.148153 
	C693.927795,4.896245 695.277954,3.528265 703.447083,3.480169 
	C705.740906,3.466663 708.034912,3.478107 710.884766,3.478107 
	C710.884766,8.438976 710.884705,12.879655 710.884705,17.320333 
	C710.884705,21.793474 710.884766,26.266613 710.884766,30.805317 
	C738.111633,25.387413 753.363220,30.925709 762.191895,49.232128 
	C769.742676,64.888710 765.627930,83.681267 752.183655,94.941368 
	C738.446960,106.446426 719.753906,106.831436 704.349487,95.698135 
z"/>
<path fill="#040404" opacity="1.000000" stroke="none" 
	d="
M233.197891,103.739059 
	C228.984909,103.810051 225.200424,103.810051 220.968002,103.810051 
	C220.968002,90.196838 220.937363,77.087852 220.979279,63.979103 
	C221.005157,55.884743 217.851410,49.689480 210.220306,46.448719 
	C199.385132,41.847240 187.351685,49.882778 187.071884,62.098698 
	C186.816574,73.245934 187.174393,84.406448 187.204285,95.561264 
	C187.221863,102.118111 185.489716,103.811035 178.952316,103.848709 
	C176.152847,103.864838 173.353210,103.851402 170.221512,103.851402 
	C170.128006,102.252968 169.989380,100.979416 169.988556,99.705772 
	C169.974960,78.724052 169.973404,57.742317 169.981644,36.760590 
	C169.984360,29.844124 171.517715,28.332718 178.506973,28.289469 
	C180.818832,28.275164 183.130875,28.287214 185.687119,28.287214 
	C185.938660,29.763678 186.144836,30.973885 186.388535,32.404404 
	C187.351028,32.099445 188.147278,31.910435 188.893875,31.601454 
	C214.370499,21.057823 238.094223,36.784733 238.138290,64.263893 
	C238.155380,74.921249 238.085403,85.579140 238.175598,96.235771 
	C238.205536,99.772392 237.176636,102.433372 233.197891,103.739059 
z"/>
<path fill="#040404" opacity="1.000000" stroke="none" 
	d="
M300.909515,73.010719 
	C300.908661,69.015984 301.003265,65.515671 300.888580,62.022240 
	C300.577606,52.552322 293.044250,45.046238 283.989319,45.083492 
	C274.972992,45.120590 267.233398,52.700867 267.111938,62.050865 
	C266.967072,73.204941 267.186798,84.363419 267.204102,95.520058 
	C267.214325,102.118896 265.520142,103.806656 259.010468,103.847488 
	C256.207245,103.865074 253.403778,103.850441 250.278458,103.850441 
	C250.160889,102.606262 249.995728,101.669601 249.995102,100.732826 
	C249.980621,79.250198 249.973343,57.767563 249.990891,36.284943 
	C249.996002,30.022703 251.682159,28.374765 258.002686,28.290882 
	C259.334717,28.273205 260.771332,27.968763 261.974854,28.362131 
	C263.750183,28.942404 265.359741,30.029913 266.829010,31.611532 
	C274.321991,29.130899 282.179504,26.975967 290.765350,28.746067 
	C305.810974,31.847948 317.328156,44.353214 317.978455,59.738575 
	C318.505432,72.206429 318.182526,84.711632 318.167511,97.200188 
	C318.162476,101.399803 315.937073,103.705658 311.712311,103.825928 
	C308.260742,103.924194 304.804138,103.845932 300.909515,103.845932 
	C300.909515,93.399506 300.909515,83.453896 300.909515,73.010719 
z"/>
<path fill="#05838F" opacity="1.000000" stroke="none" 
	d="
M675.359863,26.131786 
	C679.350830,26.734259 681.757935,28.705242 681.745422,32.396412 
	C681.698120,46.370464 682.363770,60.431190 681.041809,74.295403 
	C679.379456,91.728996 663.676147,103.915543 646.077026,103.123589 
	C628.811768,102.346664 614.648010,88.328865 614.061157,70.832291 
	C613.642761,58.358105 613.869263,45.860012 613.929871,33.373177 
	C613.953186,28.577114 616.179810,26.378685 620.917297,26.142290 
	C623.408630,26.017977 625.911621,26.103151 628.408813,26.133501 
	C629.045410,26.141239 629.680237,26.300503 630.931885,26.477032 
	C630.931885,33.146790 630.931580,39.748466 630.931946,46.350143 
	C630.932434,53.676426 630.877686,61.003242 630.948059,68.328857 
	C631.045837,78.508682 638.412842,86.202080 647.901672,86.146111 
	C657.427673,86.089920 664.757935,78.470787 664.841919,68.226448 
	C664.955078,54.422161 664.869995,40.616249 664.869995,26.116800 
	C668.405457,26.116800 671.666382,26.116800 675.359863,26.131786 
z"/>
<path fill="#050505" opacity="1.000000" stroke="none" 
	d="
M449.097656,86.861389 
	C455.194122,86.560669 460.149170,84.636040 464.400726,80.715797 
	C468.615997,76.828972 471.574219,77.142838 475.366547,81.521812 
	C477.100189,83.523651 478.770935,85.579979 480.409363,87.538879 
	C473.451874,99.822800 456.415283,106.369888 441.013550,102.858376 
	C424.411560,99.073212 412.643372,84.764267 411.459595,66.923737 
	C410.430115,51.408848 421.304993,35.439224 436.738983,29.801346 
	C452.625702,23.998110 470.232849,29.371998 480.524139,43.403351 
	C479.628387,44.582256 478.701935,45.884876 477.691162,47.118347 
	C470.918976,55.382114 470.690430,55.404377 462.313354,48.991127 
	C455.722168,43.945126 446.459045,43.366158 439.284058,47.551792 
	C431.826813,51.902073 427.834045,60.045567 428.916412,68.697212 
	C429.903351,76.585907 436.400848,83.953629 444.272705,86.035202 
	C445.715332,86.416687 447.213196,86.589478 449.097656,86.861389 
z"/>
<path fill="#050505" opacity="1.000000" stroke="none" 
	d="
M494.720184,3.243048 
	C498.613586,3.199718 502.079651,3.199718 506.185272,3.199718 
	C506.185272,12.035516 506.185272,20.571304 506.185272,29.520931 
	C512.421509,29.520931 518.024475,29.520931 523.834351,29.520931 
	C523.834351,35.379143 523.834351,40.801807 523.834351,46.655640 
	C518.179260,46.655640 512.591187,46.655640 506.529938,46.655640 
	C506.415985,48.461163 506.251129,49.872871 506.249390,51.284790 
	C506.230988,66.093048 506.248535,80.901344 506.234711,95.709610 
	C506.228638,102.219147 504.456940,104.024605 498.038269,104.106285 
	C495.237701,104.141930 492.436371,104.112274 489.373566,104.112274 
	C489.240875,102.689354 489.047699,101.579933 489.047089,100.470406 
	C489.030762,70.853851 489.069092,41.237206 488.993744,11.620836 
	C488.983368,7.543960 489.819855,4.348238 494.720184,3.243048 
z"/>
<path fill="#F4F4F4" opacity="1.000000" stroke="none" 
	d="
M372.179077,44.545242 
	C378.571381,46.992653 382.896698,51.009922 385.599335,57.525711 
	C371.670105,57.525711 358.175446,57.525711 344.703430,57.525711 
	C347.274231,47.116081 358.738495,41.517891 372.179077,44.545242 
z"/>
</svg>